<?xml version="1.0" encoding="utf-8"?>
<svg version="1.2" baseProfile="tiny" id="Capa_1" xmlns="http://www.w3.org/2000/svg" xmlns:xlink="http://www.w3.org/1999/xlink"
	x="0px" y="0px" viewBox="0 0 784.2 665.6" overflow="visible" xml:space="preserve">
<path fill="#F59521" stroke="#F59521" stroke-width="2" stroke-miterlimit="10" d="M594.7,383.5c-84,62.4-125.5,264.3-192,264.3
	s-119-195.3-199.6-257.4c-52.7-40.6,133.1,24.2,199.6,24.2S648.1,343.9,594.7,383.5z"/>
<rect x="3560.7" y="-51" stroke="#1D1D1B" stroke-miterlimit="10" width="880.4" height="652.7"/>
<ellipse fill="#FFFFFF" stroke="#F59521" stroke-width="2" stroke-miterlimit="10" cx="391" cy="221.1" rx="373.9" ry="200.7"/>
<rect x="961.2" y="397.6" fill="none" width="880.4" height="124.2"/>
<text transform="matrix(1 0 0 1 1047.8634 464.8282)" fill="#F59521" font-family="'EGOSTABold'" font-size="90px">G</text>
<text transform="matrix(1 0 0 1 1105.5529 464.8282)" fill="#F59521" font-family="'EGOSTABold'" font-size="90px">R</text>
<text transform="matrix(1 0 0 1 1161.3527 464.8282)" fill="#F59521" font-family="'EGOSTABold'" font-size="90px">U</text>
<text transform="matrix(1 0 0 1 1220.1222 464.8282)" fill="#F59521" font-family="'EGOSTABold'" font-size="90px">P</text>
<text transform="matrix(1 0 0 1 1276.9122 464.8282)" fill="#F59521" font-family="'EGOSTABold'" font-size="90px">O</text>
<text transform="matrix(1 0 0 1 1334.6017 464.8282)" font-family="'EGOSTABold'" font-size="90px"> </text>
<text transform="matrix(1 0 0 1 1365.5616 464.8282)" fill="#1B1A61" font-family="'EGOSTABold'" font-size="90px">N</text>
<text transform="matrix(1 0 0 1 1425.5909 464.8282)" fill="#1B1A61" font-family="'EGOSTABold'" font-size="90px">A</text>
<text transform="matrix(1 0 0 1 1476.9806 464.8282)" fill="#1B1A61" font-family="'EGOSTABold'" font-size="90px">V</text>
<text transform="matrix(1 0 0 1 1529.5402 464.8282)" fill="#1B1A61" font-family="'EGOSTABold'" font-size="90px">A</text>
<text transform="matrix(1 0 0 1 1585.6993 464.8282)" fill="#1B1A61" font-family="'EGOSTABold'" font-size="90px">R</text>
<text transform="matrix(1 0 0 1 1641.4991 464.8282)" fill="#1B1A61" font-family="'EGOSTABold'" font-size="90px">R</text>
<text transform="matrix(1 0 0 1 1697.299 464.8282)" fill="#1B1A61" font-family="'EGOSTABold'" font-size="90px">O</text>
<rect x="1853.4" y="327.4" fill="none" width="368.5" height="52"/>
<text transform="matrix(1 0 0 1 1889.6825 355.5765)" fill="#F59521" font-family="'EGOSTABold'" font-size="37.6697px">G</text>
<text transform="matrix(1 0 0 1 1913.8285 355.5765)" fill="#F59521" font-family="'EGOSTABold'" font-size="37.6697px">R</text>
<text transform="matrix(1 0 0 1 1937.1835 355.5765)" fill="#F59521" font-family="'EGOSTABold'" font-size="37.6697px">U</text>
<text transform="matrix(1 0 0 1 1961.7816 355.5765)" fill="#F59521" font-family="'EGOSTABold'" font-size="37.6697px">P</text>
<text transform="matrix(1 0 0 1 1985.5511 355.5765)" fill="#F59521" font-family="'EGOSTABold'" font-size="37.6697px">O</text>
<text transform="matrix(1 0 0 1 2009.6971 355.5765)" font-family="'EGOSTABold'" font-size="37.6697px"> </text>
<text transform="matrix(1 0 0 1 2022.6552 355.5765)" fill="#1B1A61" font-family="'EGOSTABold'" font-size="37.6697px">N</text>
<text transform="matrix(1 0 0 1 2047.7806 355.5765)" fill="#1B1A61" font-family="'EGOSTABold'" font-size="37.6697px">A</text>
<text transform="matrix(1 0 0 1 2069.2903 355.5765)" fill="#1B1A61" font-family="'EGOSTABold'" font-size="37.6697px">V</text>
<text transform="matrix(1 0 0 1 2091.2888 355.5765)" fill="#1B1A61" font-family="'EGOSTABold'" font-size="37.6697px">A</text>
<text transform="matrix(1 0 0 1 2114.7947 355.5765)" fill="#1B1A61" font-family="'EGOSTABold'" font-size="37.6697px">R</text>
<text transform="matrix(1 0 0 1 2138.1497 355.5765)" fill="#1B1A61" font-family="'EGOSTABold'" font-size="37.6697px">R</text>
<text transform="matrix(1 0 0 1 2161.5046 355.5765)" fill="#1B1A61" font-family="'EGOSTABold'" font-size="37.6697px">O</text>

<rect x="2450.4" y="426.1" fill="none" width="200.3" height="57.1"/>
<text transform="matrix(1 0 0 1 2469.228 452.4318)" font-family="'EGOSTALight'" font-size="40px">L</text>
<text transform="matrix(1 0 0 1 2487.6274 452.4318)" font-family="'EGOSTALight'" font-size="40px">O</text>
<text transform="matrix(1 0 0 1 2511.2671 452.4318)" font-family="'EGOSTALight'" font-size="40px">G</text>
<text transform="matrix(1 0 0 1 2534.5068 452.4318)" font-family="'EGOSTALight'" font-size="40px">O</text>
<text transform="matrix(1 0 0 1 2557.4668 452.4318)" font-family="'EGOSTALight'" font-size="40px">T</text>
<text transform="matrix(1 0 0 1 2576.9468 452.4318)" font-family="'EGOSTALight'" font-size="40px">I</text>
<text transform="matrix(1 0 0 1 2585.2261 452.4318)" font-family="'EGOSTALight'" font-size="40px">P</text>
<text transform="matrix(1 0 0 1 2608.2656 452.4318)" font-family="'EGOSTALight'" font-size="40px">O</text>
<rect x="1913.8" y="456.2" fill="none" width="283.5" height="87.1"/>
<text transform="matrix(1 0 0 1 1913.7715 503.3177)" fill="#1B1A61" font-family="'EGOSTABold'" font-size="63.1088px">N</text>
<text transform="matrix(1 0 0 1 1955.8647 503.3177)" fill="#1B1A61" font-family="'EGOSTABold'" font-size="63.1088px">A</text>
<text transform="matrix(1 0 0 1 1991.8999 503.3177)" fill="#1B1A61" font-family="'EGOSTABold'" font-size="63.1088px">V</text>
<text transform="matrix(1 0 0 1 2028.7549 503.3177)" fill="#1B1A61" font-family="'EGOSTABold'" font-size="63.1088px">A</text>
<text transform="matrix(1 0 0 1 2068.1348 503.3177)" fill="#1B1A61" font-family="'EGOSTABold'" font-size="63.1088px">R</text>
<text transform="matrix(1 0 0 1 2107.2617 503.3177)" fill="#1B1A61" font-family="'EGOSTABold'" font-size="63.1088px">R</text>
<text transform="matrix(1 0 0 1 2146.3887 503.3177)" fill="#1B1A61" font-family="'EGOSTABold'" font-size="63.1088px">O</text>
<rect x="1913.8" y="426.3" fill="none" width="219.7" height="29.6"/>
<text transform="matrix(1 0 0 1 1913.7715 447.2054)" fill="#F59521" font-family="'EGOSTABold'" font-size="28.0484px">GRUPO</text>
<rect x="1900.6" y="736.6" fill="none" width="725.1" height="135.5"/>
<text transform="matrix(1 0 0 1 1900.5956 861.2873)" fill="#1B1A61" font-family="'EGOSTABold'" font-size="166.9756px">N</text>
<text transform="matrix(1 0 0 1 2011.9672 861.2873)" fill="#1B1A61" font-family="'EGOSTABold'" font-size="166.9756px">A</text>
<text transform="matrix(1 0 0 1 2107.3098 861.2873)" fill="#1B1A61" font-family="'EGOSTABold'" font-size="166.9756px">V</text>
<text transform="matrix(1 0 0 1 2204.8235 861.2873)" fill="#1B1A61" font-family="'EGOSTABold'" font-size="166.9756px">A</text>
<text transform="matrix(1 0 0 1 2309.0149 861.2873)" fill="#1B1A61" font-family="'EGOSTABold'" font-size="166.9756px">R</text>
<text transform="matrix(1 0 0 1 2412.5393 861.2873)" fill="#1B1A61" font-family="'EGOSTABold'" font-size="166.9756px">R</text>
<text transform="matrix(1 0 0 1 2516.0637 861.2873)" fill="#1B1A61" font-family="'EGOSTABold'" font-size="166.9756px">O</text>
<rect x="1900.6" y="657.4" fill="none" width="581.3" height="78.3"/>
<text transform="matrix(1 0 0 1 1900.6044 712.8498)" fill="#F59521" font-family="'EGOSTABold'" font-size="74.2057px">GRUPO</text>
<path fill="none" stroke="#FF0000" stroke-miterlimit="10" d="M2242.6,139.6"/>
<path fill="none" stroke="#FF0000" stroke-miterlimit="10" d="M2241.8,16.5"/>
<path fill="none" stroke="#FF0000" stroke-miterlimit="10" d="M2243.2,331.2"/>
<path fill="none" stroke="#FF0000" stroke-miterlimit="10" d="M2242.3,208.1"/>

<path fill="none" stroke="#FF0000" stroke-miterlimit="10" d="M2243.7,508.7"/>
<path fill="none" stroke="#FF0000" stroke-miterlimit="10" d="M2242.8,385.7"/>

<rect x="2450.4" y="246.5" fill="none" width="200.3" height="57.1"/>
<text transform="matrix(1 0 0 1 2458.0483 272.8374)" font-family="'EGOSTALight'" font-size="40px">I</text>
<text transform="matrix(1 0 0 1 2466.3276 272.8374)" font-family="'EGOSTALight'" font-size="40px">M</text>
<text transform="matrix(1 0 0 1 2500.3271 272.8374)" font-family="'EGOSTALight'" font-size="40px">A</text>
<text transform="matrix(1 0 0 1 2522.4468 272.8374)" font-family="'EGOSTALight'" font-size="40px">G</text>
<text transform="matrix(1 0 0 1 2545.6865 272.8374)" font-family="'EGOSTALight'" font-size="40px">O</text>
<text transform="matrix(1 0 0 1 2568.6465 272.8374)" font-family="'EGOSTALight'" font-size="40px">T</text>
<text transform="matrix(1 0 0 1 2588.126 272.8374)" font-family="'EGOSTALight'" font-size="40px">I</text>
<text transform="matrix(1 0 0 1 2596.4053 272.8374)" font-family="'EGOSTALight'" font-size="40px">P</text>
<text transform="matrix(1 0 0 1 2619.4453 272.8374)" font-family="'EGOSTALight'" font-size="40px">O</text>
<rect x="2450.4" y="49.5" fill="none" width="200.3" height="57.1"/>
<text transform="matrix(1 0 0 1 2486.8877 75.8158)" font-family="'EGOSTALight'" font-size="40px">I</text>
<text transform="matrix(1 0 0 1 2495.167 75.8158)" font-family="'EGOSTALight'" font-size="40px">S</text>
<text transform="matrix(1 0 0 1 2516.8467 75.8158)" font-family="'EGOSTALight'" font-size="40px">O</text>
<text transform="matrix(1 0 0 1 2539.8066 75.8158)" font-family="'EGOSTALight'" font-size="40px">T</text>
<text transform="matrix(1 0 0 1 2559.2861 75.8158)" font-family="'EGOSTALight'" font-size="40px">I</text>
<text transform="matrix(1 0 0 1 2567.5654 75.8158)" font-family="'EGOSTALight'" font-size="40px">P</text>
<text transform="matrix(1 0 0 1 2590.6055 75.8158)" font-family="'EGOSTALight'" font-size="40px">O</text>
<rect x="2716.4" y="3.5" fill="#F59521" width="803" height="556.4"/>
<rect x="2751.2" y="30.8" fill="none" width="737.2" height="124.2"/>
<text transform="matrix(1 0 0 1 2766.2065 98.0533)" fill="#1B1A61" font-family="'EGOSTABold'" font-size="90px">G</text>
<text transform="matrix(1 0 0 1 2823.896 98.0533)" fill="#1B1A61" font-family="'EGOSTABold'" font-size="90px">R</text>
<text transform="matrix(1 0 0 1 2879.6958 98.0533)" fill="#1B1A61" font-family="'EGOSTABold'" font-size="90px">U</text>
<text transform="matrix(1 0 0 1 2938.4653 98.0533)" fill="#1B1A61" font-family="'EGOSTABold'" font-size="90px">P</text>
<text transform="matrix(1 0 0 1 2995.2554 98.0533)" fill="#1B1A61" font-family="'EGOSTABold'" font-size="90px">O</text>
<text transform="matrix(1 0 0 1 3052.9448 98.0533)" fill="#1B1A61" font-family="'EGOSTABold'" font-size="90px"> </text>
<text transform="matrix(1 0 0 1 3083.9038 98.0533)" fill="#1B1A61" font-family="'EGOSTABold'" font-size="90px">N</text>
<text transform="matrix(1 0 0 1 3143.9331 98.0533)" fill="#1B1A61" font-family="'EGOSTABold'" font-size="90px">A</text>
<text transform="matrix(1 0 0 1 3195.3228 98.0533)" fill="#1B1A61" font-family="'EGOSTABold'" font-size="90px">V</text>
<text transform="matrix(1 0 0 1 3247.8823 98.0533)" fill="#1B1A61" font-family="'EGOSTABold'" font-size="90px">A</text>
<text transform="matrix(1 0 0 1 3304.0415 98.0533)" fill="#1B1A61" font-family="'EGOSTABold'" font-size="90px">R</text>
<text transform="matrix(1 0 0 1 3359.8413 98.0533)" fill="#1B1A61" font-family="'EGOSTABold'" font-size="90px">R</text>
<text transform="matrix(1 0 0 1 3415.6411 98.0533)" fill="#1B1A61" font-family="'EGOSTABold'" font-size="90px">O</text>
<rect x="2751.2" y="137.9" fill="none" width="737.2" height="124.2"/>
<text transform="matrix(1 0 0 1 2766.2065 205.1182)" fill="#FFFFFF" font-family="'EGOSTABold'" font-size="90px">G</text>
<text transform="matrix(1 0 0 1 2823.896 205.1182)" fill="#FFFFFF" font-family="'EGOSTABold'" font-size="90px">R</text>
<text transform="matrix(1 0 0 1 2879.6958 205.1182)" fill="#FFFFFF" font-family="'EGOSTABold'" font-size="90px">U</text>
<text transform="matrix(1 0 0 1 2938.4653 205.1182)" fill="#FFFFFF" font-family="'EGOSTABold'" font-size="90px">P</text>
<text transform="matrix(1 0 0 1 2995.2554 205.1182)" fill="#FFFFFF" font-family="'EGOSTABold'" font-size="90px">O</text>
<text transform="matrix(1 0 0 1 3052.9448 205.1182)" fill="#FFFFFF" font-family="'EGOSTABold'" font-size="90px"> </text>
<text transform="matrix(1 0 0 1 3083.9038 205.1182)" fill="#FFFFFF" font-family="'EGOSTABold'" font-size="90px">N</text>
<text transform="matrix(1 0 0 1 3143.9331 205.1182)" fill="#FFFFFF" font-family="'EGOSTABold'" font-size="90px">A</text>
<text transform="matrix(1 0 0 1 3195.3228 205.1182)" fill="#FFFFFF" font-family="'EGOSTABold'" font-size="90px">V</text>
<text transform="matrix(1 0 0 1 3247.8823 205.1182)" fill="#FFFFFF" font-family="'EGOSTABold'" font-size="90px">A</text>
<text transform="matrix(1 0 0 1 3304.0415 205.1182)" fill="#FFFFFF" font-family="'EGOSTABold'" font-size="90px">R</text>
<text transform="matrix(1 0 0 1 3359.8413 205.1182)" fill="#FFFFFF" font-family="'EGOSTABold'" font-size="90px">R</text>
<text transform="matrix(1 0 0 1 3415.6411 205.1182)" fill="#FFFFFF" font-family="'EGOSTABold'" font-size="90px">O</text>
<rect x="2769.9" y="297.2" fill="none" width="453.5" height="99.9"/>
<text transform="matrix(1 0 0 1 2769.8948 372.6399)" fill="#1B1A61" font-family="'EGOSTABold'" font-size="100.9741px">N</text>
<text transform="matrix(1 0 0 1 2837.2434 372.6399)" fill="#1B1A61" font-family="'EGOSTABold'" font-size="100.9741px">A</text>
<text transform="matrix(1 0 0 1 2894.8997 372.6399)" fill="#1B1A61" font-family="'EGOSTABold'" font-size="100.9741px">V</text>
<text transform="matrix(1 0 0 1 2953.8684 372.6399)" fill="#1B1A61" font-family="'EGOSTABold'" font-size="100.9741px">A</text>
<text transform="matrix(1 0 0 1 3016.8752 372.6399)" fill="#1B1A61" font-family="'EGOSTABold'" font-size="100.9741px">R</text>
<text transform="matrix(1 0 0 1 3079.4788 372.6399)" fill="#1B1A61" font-family="'EGOSTABold'" font-size="100.9741px">R</text>
<text transform="matrix(1 0 0 1 3142.0823 372.6399)" fill="#1B1A61" font-family="'EGOSTABold'" font-size="100.9741px">O</text>
<rect x="2769.9" y="249.3" fill="none" width="351.5" height="47.4"/>
<text transform="matrix(1 0 0 1 2769.9006 282.863)" fill="#1B1A61" font-family="'EGOSTABold'" font-size="44.8774px">GRUPO</text>
<rect x="2769.9" y="445.5" fill="none" width="453.5" height="99.9"/>
<text transform="matrix(1 0 0 1 2769.8948 520.9557)" fill="#FFFFFF" font-family="'EGOSTABold'" font-size="100.9741px">N</text>
<text transform="matrix(1 0 0 1 2837.2434 520.9557)" fill="#FFFFFF" font-family="'EGOSTABold'" font-size="100.9741px">A</text>
<text transform="matrix(1 0 0 1 2894.8997 520.9557)" fill="#FFFFFF" font-family="'EGOSTABold'" font-size="100.9741px">V</text>
<text transform="matrix(1 0 0 1 2953.8684 520.9557)" fill="#FFFFFF" font-family="'EGOSTABold'" font-size="100.9741px">A</text>
<text transform="matrix(1 0 0 1 3016.8752 520.9557)" fill="#FFFFFF" font-family="'EGOSTABold'" font-size="100.9741px">R</text>
<text transform="matrix(1 0 0 1 3079.4788 520.9557)" fill="#FFFFFF" font-family="'EGOSTABold'" font-size="100.9741px">R</text>
<text transform="matrix(1 0 0 1 3142.0823 520.9557)" fill="#FFFFFF" font-family="'EGOSTABold'" font-size="100.9741px">O</text>
<rect x="2769.9" y="397.7" fill="none" width="351.5" height="47.4"/>
<text transform="matrix(1 0 0 1 2769.9006 431.1788)" fill="#FFFFFF" font-family="'EGOSTABold'" font-size="44.8774px">GRUPO</text>
<rect x="999.9" y="619.6" fill="#1B1A61" width="803" height="556.4"/>
<rect x="1032.8" y="640.5" fill="none" width="737.2" height="124.2"/>
<text transform="matrix(1 0 0 1 1047.8643 707.7354)" fill="#F59521" font-family="'EGOSTABold'" font-size="90px">G</text>
<text transform="matrix(1 0 0 1 1105.5537 707.7354)" fill="#F59521" font-family="'EGOSTABold'" font-size="90px">R</text>
<text transform="matrix(1 0 0 1 1161.3535 707.7354)" fill="#F59521" font-family="'EGOSTABold'" font-size="90px">U</text>
<text transform="matrix(1 0 0 1 1220.123 707.7354)" fill="#F59521" font-family="'EGOSTABold'" font-size="90px">P</text>
<text transform="matrix(1 0 0 1 1276.9131 707.7354)" fill="#F59521" font-family="'EGOSTABold'" font-size="90px">O</text>
<text transform="matrix(1 0 0 1 1334.6025 707.7354)" fill="#F59521" font-family="'EGOSTABold'" font-size="90px"> </text>
<text transform="matrix(1 0 0 1 1365.5615 707.7354)" fill="#F59521" font-family="'EGOSTABold'" font-size="90px">N</text>
<text transform="matrix(1 0 0 1 1425.5908 707.7354)" fill="#F59521" font-family="'EGOSTABold'" font-size="90px">A</text>
<text transform="matrix(1 0 0 1 1476.9805 707.7354)" fill="#F59521" font-family="'EGOSTABold'" font-size="90px">V</text>
<text transform="matrix(1 0 0 1 1529.54 707.7354)" fill="#F59521" font-family="'EGOSTABold'" font-size="90px">A</text>
<text transform="matrix(1 0 0 1 1585.6992 707.7354)" fill="#F59521" font-family="'EGOSTABold'" font-size="90px">R</text>
<text transform="matrix(1 0 0 1 1641.499 707.7354)" fill="#F59521" font-family="'EGOSTABold'" font-size="90px">R</text>
<text transform="matrix(1 0 0 1 1697.2988 707.7354)" fill="#F59521" font-family="'EGOSTABold'" font-size="90px">O</text>
<rect x="1032.8" y="747.6" fill="none" width="737.2" height="124.2"/>
<text transform="matrix(1 0 0 1 1047.8643 814.8004)" fill="#FFFFFF" font-family="'EGOSTABold'" font-size="90px">G</text>
<text transform="matrix(1 0 0 1 1105.5537 814.8004)" fill="#FFFFFF" font-family="'EGOSTABold'" font-size="90px">R</text>
<text transform="matrix(1 0 0 1 1161.3535 814.8004)" fill="#FFFFFF" font-family="'EGOSTABold'" font-size="90px">U</text>
<text transform="matrix(1 0 0 1 1220.123 814.8004)" fill="#FFFFFF" font-family="'EGOSTABold'" font-size="90px">P</text>
<text transform="matrix(1 0 0 1 1276.9131 814.8004)" fill="#FFFFFF" font-family="'EGOSTABold'" font-size="90px">O</text>
<text transform="matrix(1 0 0 1 1334.6025 814.8004)" fill="#FFFFFF" font-family="'EGOSTABold'" font-size="90px"> </text>
<text transform="matrix(1 0 0 1 1365.5615 814.8004)" fill="#FFFFFF" font-family="'EGOSTABold'" font-size="90px">N</text>
<text transform="matrix(1 0 0 1 1425.5908 814.8004)" fill="#FFFFFF" font-family="'EGOSTABold'" font-size="90px">A</text>
<text transform="matrix(1 0 0 1 1476.9805 814.8004)" fill="#FFFFFF" font-family="'EGOSTABold'" font-size="90px">V</text>
<text transform="matrix(1 0 0 1 1529.54 814.8004)" fill="#FFFFFF" font-family="'EGOSTABold'" font-size="90px">A</text>
<text transform="matrix(1 0 0 1 1585.6992 814.8004)" fill="#FFFFFF" font-family="'EGOSTABold'" font-size="90px">R</text>
<text transform="matrix(1 0 0 1 1641.499 814.8004)" fill="#FFFFFF" font-family="'EGOSTABold'" font-size="90px">R</text>
<text transform="matrix(1 0 0 1 1697.2988 814.8004)" fill="#FFFFFF" font-family="'EGOSTABold'" font-size="90px">O</text>
<rect x="1051.6" y="906.9" fill="none" width="453.5" height="99.9"/>
<text transform="matrix(1 0 0 1 1051.5525 982.322)" fill="#F59521" font-family="'EGOSTABold'" font-size="100.9741px">N</text>
<text transform="matrix(1 0 0 1 1118.9011 982.322)" fill="#F59521" font-family="'EGOSTABold'" font-size="100.9741px">A</text>
<text transform="matrix(1 0 0 1 1176.5574 982.322)" fill="#F59521" font-family="'EGOSTABold'" font-size="100.9741px">V</text>
<text transform="matrix(1 0 0 1 1235.5261 982.322)" fill="#F59521" font-family="'EGOSTABold'" font-size="100.9741px">A</text>
<text transform="matrix(1 0 0 1 1298.533 982.322)" fill="#F59521" font-family="'EGOSTABold'" font-size="100.9741px">R</text>
<text transform="matrix(1 0 0 1 1361.1365 982.322)" fill="#F59521" font-family="'EGOSTABold'" font-size="100.9741px">R</text>
<text transform="matrix(1 0 0 1 1423.74 982.322)" fill="#F59521" font-family="'EGOSTABold'" font-size="100.9741px">O</text>
<rect x="1051.6" y="859" fill="none" width="351.5" height="47.4"/>
<text transform="matrix(1 0 0 1 1051.5583 892.5452)" fill="#F59521" font-family="'EGOSTABold'" font-size="44.8774px">GRUPO</text>
<rect x="1051.6" y="1055.2" fill="none" width="453.5" height="99.9"/>
<text transform="matrix(1 0 0 1 1051.5525 1130.6378)" fill="#FFFFFF" font-family="'EGOSTABold'" font-size="100.9741px">N</text>
<text transform="matrix(1 0 0 1 1118.9011 1130.6378)" fill="#FFFFFF" font-family="'EGOSTABold'" font-size="100.9741px">A</text>
<text transform="matrix(1 0 0 1 1176.5574 1130.6378)" fill="#FFFFFF" font-family="'EGOSTABold'" font-size="100.9741px">V</text>
<text transform="matrix(1 0 0 1 1235.5261 1130.6378)" fill="#FFFFFF" font-family="'EGOSTABold'" font-size="100.9741px">A</text>
<text transform="matrix(1 0 0 1 1298.533 1130.6378)" fill="#FFFFFF" font-family="'EGOSTABold'" font-size="100.9741px">R</text>
<text transform="matrix(1 0 0 1 1361.1365 1130.6378)" fill="#FFFFFF" font-family="'EGOSTABold'" font-size="100.9741px">R</text>
<text transform="matrix(1 0 0 1 1423.74 1130.6378)" fill="#FFFFFF" font-family="'EGOSTABold'" font-size="100.9741px">O</text>
<rect x="1051.6" y="1007.3" fill="none" width="351.5" height="47.4"/>
<text transform="matrix(1 0 0 1 1051.5583 1040.861)" fill="#FFFFFF" font-family="'EGOSTABold'" font-size="44.8774px">GRUPO</text>
<path fill="#F59521" stroke="#F59521" stroke-width="0.5" stroke-miterlimit="10" d="M1706,221.1c-5.4,78-138.7,144-304.6,144.8
	c-168.2,0.8-304.6-64.8-304.6-144.8s136.4-144.8,304.6-144.8S1711.6,141.3,1706,221.1z"/>
<path fill="#FFFFFF" stroke="#F59521" stroke-width="0.5" stroke-miterlimit="10" d="M1664.6,221.1c1.3,79.1-113,144.2-262.6,144.8
	c-145,0.5-262.9-64.8-262.6-144.8C1139.7,128,1257,75.5,1402,76.3C1553.4,77.2,1663.2,130,1664.6,221.1z"/>
<path fill="#1B1A61" d="M1547.3,140.2h46.8v136.1c0,0-5.3,34.8-40.9,19c-13.7-6.1-137.9-114.9-137.9-114.9l-218-0.2
	c0,0,14.2-31.5,63.5-41.8c17.7-3.7,173.1,0,173.1,0l112.9,90.8L1547.3,140.2z"/>
<polygon fill="#1B1A61" points="1410.1,189 1410.1,296.1 1460.7,296.1 1460.7,231.3 "/>
<path fill="#1B1A61" d="M1391.4,196.7v99.4h-121.9c0,0-100.1-18.5-74.3-108.1c0,0,55.5,0,55.5,0l0,0.5c0,0-37.8,45.5,21.8,63.9
	c6.4,2,70.3,1.6,70.3,1.6l-0.1-21.8l-80.5-0.2l30.5-35.1L1391.4,196.7z"/>
<path fill="#F59521" stroke="#F59521" stroke-width="0.5" stroke-miterlimit="10" d="M695,218.2c-5.4,78-138.7,144-304.6,144.8
	c-168.2,0.8-304.6-64.8-304.6-144.8S222.1,73.4,390.4,73.4S700.6,138.4,695,218.2z"/>
<path fill="#FFFFFF" stroke="#F59521" stroke-width="0.5" stroke-miterlimit="10" d="M653.7,218.2c1.3,79.1-113,144.2-262.6,144.8
	c-145,0.5-262.9-64.8-262.6-144.8C128.8,125,246.1,72.6,391,73.4C542.4,74.2,652.2,127.1,653.7,218.2z"/>
<path fill="#1B1A61" d="M536.4,137.3h46.8v136.1c0,0-5.3,34.8-40.9,19c-13.7-6.1-137.9-114.9-137.9-114.9l-218-0.2
	c0,0,14.2-31.5,63.5-41.8c17.7-3.7,173.1,0,173.1,0l112.9,90.8L536.4,137.3z"/>
<polygon fill="#1B1A61" points="399.1,186.1 399.1,293.1 449.7,293.1 449.7,228.3 "/>
<path fill="#1B1A61" d="M380.4,193.8v99.4H258.5c0,0-100.1-18.5-74.3-108.1c0,0,55.5,0,55.5,0l0,0.5c0,0-37.8,45.5,21.8,63.9
	c6.4,2,70.3,1.6,70.3,1.6l-0.1-21.8l-80.5-0.2l30.5-35.1L380.4,193.8z"/>
<path fill="#F59521" stroke="#F59521" stroke-width="0.5" stroke-miterlimit="10" d="M2136.9,249.1c-2,29-51.6,53.6-113.4,53.9
	c-62.6,0.3-113.4-24.1-113.4-53.9c0-29.8,50.8-53.9,113.4-53.9C2086.2,195.2,2139,219.4,2136.9,249.1z"/>
<path fill="#FFFFFF" stroke="#F59521" stroke-width="0.5" stroke-miterlimit="10" d="M2121.6,249.1c0.5,29.4-42,53.7-97.7,53.9
	c-54,0.2-97.8-24.1-97.7-53.9c0.1-34.7,43.8-54.2,97.7-53.9C2080.2,195.6,2121,215.2,2121.6,249.1z"/>
<path fill="#1B1A61" d="M2077.9,219h17.4v50.7c0,0-2,12.9-15.2,7.1c-5.1-2.3-51.3-42.8-51.3-42.8l-81.1-0.1c0,0,5.3-11.7,23.6-15.6
	c6.6-1.4,64.4,0,64.4,0l42,33.8L2077.9,219z"/>
<polygon fill="#1B1A61" points="2026.9,237.2 2026.9,277 2045.7,277 2045.7,252.9 "/>
<path fill="#1B1A61" d="M2019.9,240v37h-45.4c0,0-37.3-6.9-27.7-40.2c0,0,20.6,0,20.6,0l0,0.2c0,0-14.1,16.9,8.1,23.8
	c2.4,0.7,26.1,0.6,26.1,0.6l0-8.1l-30-0.1l11.4-13.1L2019.9,240z"/>
<path fill="#F59521" stroke="#F59521" stroke-width="0.5" stroke-miterlimit="10" d="M2133.2,75.8c-2,29-51.6,53.6-113.4,53.9
	c-62.6,0.3-113.4-24.1-113.4-53.9s50.8-53.9,113.4-53.9C2082.5,21.9,2135.3,46.1,2133.2,75.8z"/>
<path fill="#FFFFFF" stroke="#F59521" stroke-width="0.5" stroke-miterlimit="10" d="M2117.8,75.8c0.5,29.4-42,53.7-97.7,53.9
	c-54,0.2-97.8-24.1-97.7-53.9c0.1-34.7,43.8-54.2,97.7-53.9C2076.4,22.3,2117.3,41.9,2117.8,75.8z"/>
<path fill="#1B1A61" d="M2074.2,45.7h17.4v50.7c0,0-2,12.9-15.2,7.1c-5.1-2.3-51.3-42.8-51.3-42.8l-81.1-0.1c0,0,5.3-11.7,23.6-15.6
	c6.6-1.4,64.4,0,64.4,0l42,33.8L2074.2,45.7z"/>
<polygon fill="#1B1A61" points="2023.1,63.9 2023.1,103.7 2041.9,103.7 2041.9,79.6 "/>
<path fill="#1B1A61" d="M2016.1,66.7v37h-45.4c0,0-37.3-6.9-27.7-40.2c0,0,20.6,0,20.6,0l0,0.2c0,0-14.1,16.9,8.1,23.8
	c2.4,0.7,26.1,0.6,26.1,0.6l0-8.1l-30-0.1l11.4-13.1L2016.1,66.7z"/>
<rect x="3560.7" y="397.6" fill="none" width="880.4" height="124.2"/>
<text transform="matrix(1 0 0 1 3647.3633 464.8282)" fill="#FFFFFF" font-family="'EGOSTABold'" font-size="90px">G</text>
<text transform="matrix(1 0 0 1 3705.0527 464.8282)" fill="#FFFFFF" font-family="'EGOSTABold'" font-size="90px">R</text>
<text transform="matrix(1 0 0 1 3760.8525 464.8282)" fill="#FFFFFF" font-family="'EGOSTABold'" font-size="90px">U</text>
<text transform="matrix(1 0 0 1 3819.6221 464.8282)" fill="#FFFFFF" font-family="'EGOSTABold'" font-size="90px">P</text>
<text transform="matrix(1 0 0 1 3876.4121 464.8282)" fill="#FFFFFF" font-family="'EGOSTABold'" font-size="90px">O</text>
<text transform="matrix(1 0 0 1 3934.1016 464.8282)" font-family="'EGOSTABold'" font-size="90px"> </text>
<text transform="matrix(1 0 0 1 3965.0615 464.8282)" fill="#FFFFFF" font-family="'EGOSTABold'" font-size="90px">N</text>
<text transform="matrix(1 0 0 1 4025.0908 464.8282)" fill="#FFFFFF" font-family="'EGOSTABold'" font-size="90px">A</text>
<text transform="matrix(1 0 0 1 4076.4805 464.8282)" fill="#FFFFFF" font-family="'EGOSTABold'" font-size="90px">V</text>
<text transform="matrix(1 0 0 1 4129.04 464.8282)" fill="#FFFFFF" font-family="'EGOSTABold'" font-size="90px">A</text>
<text transform="matrix(1 0 0 1 4185.1992 464.8282)" fill="#FFFFFF" font-family="'EGOSTABold'" font-size="90px">R</text>
<text transform="matrix(1 0 0 1 4240.999 464.8282)" fill="#FFFFFF" font-family="'EGOSTABold'" font-size="90px">R</text>
<text transform="matrix(1 0 0 1 4296.7988 464.8282)" fill="#FFFFFF" font-family="'EGOSTABold'" font-size="90px">O</text>
<path fill="#FFFFFF" stroke="#FFFFFF" stroke-width="0.5" stroke-miterlimit="10" d="M4305.5,221.1c-5.4,78-138.7,144-304.6,144.8
	c-168.2,0.8-304.6-64.8-304.6-144.8s136.4-144.8,304.6-144.8C4169.1,76.3,4311.1,141.3,4305.5,221.1z"/>
<path stroke="#000000" stroke-width="0.5" stroke-miterlimit="10" d="M4264.1,221.1c1.3,79.1-113,144.2-262.6,144.8
	c-145,0.5-262.9-64.8-262.6-144.8c0.3-93.1,117.6-145.6,262.6-144.8C4152.9,77.2,4262.7,130,4264.1,221.1z"/>
<path fill="#FFFFFF" d="M4146.8,140.2h46.8v136.1c0,0-5.3,34.8-40.9,19c-13.7-6.1-137.9-114.9-137.9-114.9l-218-0.2
	c0,0,14.2-31.5,63.5-41.8c17.7-3.7,173.1,0,173.1,0l112.9,90.8L4146.8,140.2z"/>
<polygon fill="#FFFFFF" points="4009.6,189 4009.6,296.1 4060.2,296.1 4060.2,231.3 "/>
<path fill="#FFFFFF" d="M3990.9,196.7v99.4H3869c0,0-100.1-18.5-74.3-108.1c0,0,55.5,0,55.5,0l0,0.5c0,0-37.8,45.5,21.8,63.9
	c6.4,2,70.3,1.6,70.3,1.6l-0.1-21.8l-80.5-0.2l30.5-35.1L3990.9,196.7z"/>
</svg>
